<?xml version="1.0" encoding="utf-8"?>
<!-- Generator: Adobe Illustrator 27.9.4, SVG Export Plug-In . SVG Version: 9.03 Build 54784)  -->
<svg version="1.1" id="Layer_1" xmlns="http://www.w3.org/2000/svg" xmlns:xlink="http://www.w3.org/1999/xlink" x="0px" y="0px"
	 viewBox="0 0 360 360" style="enable-background:new 0 0 360 360;" xml:space="preserve">
<g>
	<path d="M238.09,80c3.26,0,5.91,2.65,5.91,5.91V301H111V85.91c0-3.26,2.65-5.91,5.91-5.91H238.09 M238.09,71H116.91
		C108.68,71,102,77.68,102,85.91V310h151V85.91C253,77.68,246.32,71,238.09,71L238.09,71z"/>
</g>
<g>
	<g>
		<path d="M161,108v32h-32v-32H161 M170,99h-50v50h50V99L170,99z"/>
	</g>
	<g>
		<path d="M225,108v32h-32v-32H225 M234,99h-50v50h50V99L234,99z"/>
	</g>
</g>
<g>
	<g>
		<path d="M161,169v32h-32v-32H161 M170,160h-50v50h50V160L170,160z"/>
	</g>
	<g>
		<path d="M225,169v32h-32v-32H225 M234,160h-50v50h50V160L234,160z"/>
	</g>
</g>
<g>
	<path d="M161,230v32h-32v-32H161 M170,221h-50v50h50V221L170,221z"/>
</g>
<g>
	<path d="M221.99,233.01v64.98h-25.98v-64.98H221.99 M234,221h-50v89h50V221L234,221z"/>
</g>
</svg>
