<?xml version="1.0" encoding="utf-8"?>
<!-- Generator: Adobe Illustrator 27.9.4, SVG Export Plug-In . SVG Version: 9.03 Build 54784)  -->
<svg version="1.1" id="Layer_1" xmlns="http://www.w3.org/2000/svg" xmlns:xlink="http://www.w3.org/1999/xlink" x="0px" y="0px"
	 viewBox="0 0 360 360" style="enable-background:new 0 0 360 360;" xml:space="preserve">
<g>
	<path d="M277.64,258.08c-66.75,0-133.5,0-200.25,0c0-48.06,0-96.12,0-144.18c66.75,0,133.5,0,200.25,0
		C277.64,161.96,277.64,210.02,277.64,258.08z M86.29,248.67c61.81,0,122.03,0,181.74,0c0-42.98,0-84.54,0-125.71
		c-61.35,0-121.1,0-181.74,0C86.29,165.07,86.29,206.15,86.29,248.67z"/>
	<path d="M91.62,140.6c27.07,15.34,50.21,27.75,72.56,41.43c9.91,6.06,17.64,5.57,27.25-0.22c22.17-13.36,44.91-25.75,70.43-35.76
		c-2.69,3.18-4.79,7.39-8.18,9.38c-22.34,13.1-44.82,25.98-67.61,38.27c-3.94,2.13-10.69,3.12-14.27,1.18
		c-25.68-13.88-50.91-28.61-76.16-43.28C94.39,150.87,94.3,148.16,91.62,140.6z"/>
</g>
</svg>
