<?xml version="1.0" encoding="utf-8"?>
<!-- Generator: Adobe Illustrator 27.9.4, SVG Export Plug-In . SVG Version: 9.03 Build 54784)  -->
<svg version="1.1" id="Layer_1" xmlns="http://www.w3.org/2000/svg" xmlns:xlink="http://www.w3.org/1999/xlink" x="0px" y="0px"
	 viewBox="0 0 360 360" style="enable-background:new 0 0 360 360;" xml:space="preserve">
<g>
	<g>
		<path d="M82.07,149.51c13.69,0,24.82,11.14,24.82,24.82c0,13.69-11.14,24.82-24.82,24.82s-24.82-11.14-24.82-24.82
			C57.25,160.64,68.38,149.51,82.07,149.51 M82.07,142.3c-17.69,0-32.03,14.34-32.03,32.03s14.34,32.03,32.03,32.03
			c17.69,0,32.03-14.34,32.03-32.03S99.76,142.3,82.07,142.3L82.07,142.3z"/>
	</g>
	<g>
		<path d="M144.14,244.05c-26.52-21.12-62.68-28.23-94.58-16.43C39.06,231.37,29.19,237,20,244.05c7.07-9.2,16.64-16.63,27.39-21.67
			C79.5,206.87,122.31,215.47,144.14,244.05L144.14,244.05z"/>
	</g>
</g>
<g>
	<g>
		<path d="M179.94,111.24c13.69,0,24.82,11.14,24.82,24.82c0,13.69-11.14,24.82-24.82,24.82c-13.69,0-24.82-11.14-24.82-24.82
			C155.12,122.38,166.25,111.24,179.94,111.24 M179.94,104.03c-17.69,0-32.03,14.34-32.03,32.03c0,17.69,14.34,32.03,32.03,32.03
			s32.03-14.34,32.03-32.03C211.97,118.37,197.63,104.03,179.94,104.03L179.94,104.03z"/>
	</g>
	<g>
		<path d="M242.01,205.79c-26.52-21.12-62.68-28.23-94.58-16.43c-10.5,3.75-20.37,9.38-29.56,16.43
			c7.07-9.2,16.64-16.63,27.39-21.67C177.36,168.61,220.17,177.2,242.01,205.79L242.01,205.79z"/>
	</g>
</g>
<g>
	<g>
		<path d="M277.93,149.42c13.69,0,24.82,11.14,24.82,24.82c0,13.69-11.14,24.82-24.82,24.82c-13.69,0-24.82-11.14-24.82-24.82
			C253.11,160.56,264.24,149.42,277.93,149.42 M277.93,142.21c-17.69,0-32.03,14.34-32.03,32.03c0,17.69,14.34,32.03,32.03,32.03
			s32.03-14.34,32.03-32.03C309.96,156.55,295.62,142.21,277.93,142.21L277.93,142.21z"/>
	</g>
	<g>
		<path d="M340,243.96c-26.52-21.12-62.68-28.23-94.58-16.43c-10.5,3.75-20.37,9.38-29.56,16.43c7.07-9.2,16.64-16.63,27.39-21.67
			C275.35,206.78,318.16,215.38,340,243.96L340,243.96z"/>
	</g>
</g>
</svg>
