<?xml version="1.0" encoding="UTF-8"?><svg id="Layer_1" xmlns="http://www.w3.org/2000/svg" viewBox="0 0 1920 1080"><defs><style>.cls-1{fill:#666667;stroke-width:0px;}</style></defs><path class="cls-1" d="m1648.15,635.95c-12.77-.76-25.47-1.52-38.1-2.42-72.52-7.32-145.83-11.05-217.18-1.25,5.83-3.3,12.54-4.44,18.36-7.74-43.62,7.41-85.66,9.92-132.47,10.1-11.14-.24-22.26-.59-33.72-1.09-55.13-6.1-110.59-1.31-167.82-.84,2.47-2.73.7-7.05,3.17-9.78-21.02,1.26-37.09-2.95-56.53-6.58-43.1-8.86-81.27-23.18-126.31-26.34-8.69-.48-17.19-.52-25.6-.16-8.41.36-16.73,1.11-24.91,2.33-10.97.85-21.84,2.05-32.55,3.68-32.1,4.87-62.65,13.52-89.31,27.3,4.94-5.46,5.64-12.51,10.59-17.97-13.42,2.28-26.67,2.79-40.07,2.36-13.4-.43-26.95-1.81-41.05-3.38-73.69-15-152.69-26.26-228.45-16.69-10.82,1.37-21.58,3.16-32.27,5.49-23.62,4.92-41.99,12.66-64.59,18.81-.88-2.16,2.47-2.73,1.59-4.89-64.46,17.88-137.76,14.14-204.54.06-6.71,1.14-11.65,6.6-17.48,9.9-6.89-8.07,2.29-11.94,11.47-15.81-7.6-1.02-16.08-4.2-21.58-3.01-7.82-.21-16.12-.07-24.32-1.22-7.52.22-15.02,1.06-22.31,2.68-7.3,1.62-14.38,4.02-21.11,7.47-7.16,2.47-14.42,14.41-23.69,13.18-2.27-1.72-4.5-5.31-2.13-9.26,2.34-2.07,9.35-4.51,11.61-.9-.04,1.9-7.09,6.21-9.44,8.27,13.89,4.69,21.24-9.19,18.97-14.74.07-3.82-14.09,1.15-18.62-4.14,4.6,1.5,6.93,1.3,11.62.91-6.94-3.2,4.93-11.85-2.06-15l2.31,1.68c2.6-13.56,14.63-22.46,26.88-33.43-4.85.55-7.26.82-12.07,1.36,7.33-6.61,19.37-.24,22.05-12.22,2.62-8.11-7.21-6.89-12.04-8.22,11.06-.41,16.09-7.39,19.93-14.26,3.84-6.86,6.47-13.6,12.73-13.5,12.15,9.48.49,16.08-2.68,25.86,60.4-10.25,114.82,17.49,177.88,13.71,31.09-2.97,60.4-10.25,79.47-25.05-1.59,4.89-6.53,10.35-8.11,15.24,33.56-5.7,72.24-7.64,106.11-13.57,8.17-1.28,16.31-2.66,24.41-4.11,24.31-4.37,48.3-9.4,71.7-14.34.88,2.16,1.77,4.32,2.65,6.48,27.91,6.82,54.57-6.95,76.29-15.26-.7,7.05,1.95,13.54-19.07,14.79,22.97,12.28,52.1-4.22,67.48,7.03,11.13,9.67,41.33,4.54,61.8,3.9,10.9-.75,21.75-1.6,32.56-2.51,10.81-.92,21.58-1.9,32.38-3,76.08-14.05,160.46-33.04,240.65-22.44,10.02,1.32,19.98,3.11,29.85,5.43,9.87,2.32,19.63,5.17,29.28,8.63-.9-4.49.73-9.82,4.01-14.96,3.28-5.14,8.2-10.1,13.86-13.8,11.32-7.41,25.58-9.83,35.48,1.2,7.8,10.29-.78,13.43-13.26,15.83-12.47,2.41-28.85,4.03-36.74,11.16,17.69-.7,30.41,4.07,49.16,3.52,9.8.98,19.56,2.04,29.31,3.09,48.74,5.24,97.12,10.18,148.19,3.44-1.59,4.89-11.65,6.6-11.65,6.6,42.22,6.7,53.32-27.54,80.87-39.15,6.27-2.22,17.4-3.53,26.47-3.34,7.97-.19,15.57.83,13.98,5.72-6.53,10.35-18.18,16.95-35.12,17.23-7.8,1.76-15.84,3.48-23.02,5.97-7.17,2.48-13.47,5.72-17.8,10.5,8.45,1.65,16.84,2.41,25.15,2.49,8.32.08,16.57-.52,24.75-1.59,8.54-1.48,17.14-3.83,25.59-6.44,8.45-2.61,16.77-5.47,24.75-7.99,15.97-5.04,30.63-8.68,42.46-6.07,76.14,19.43,168.51,8.37,248.01,5.18,11.08-1.17,21.43-2.41,30.69-3.48,43.98-3.04,35.05-56.06,137.56-56.3,35.72-2.96-12.45,17.99-36.03,28.24,11.57-.87,23.05,2.5,34.78,1.63-69.21,5.12-102.76,7.61-125.75,33.88,78.09-1-42.46-13.35-11.87,25.28,10.22,15.77,42.83,9.25-10.61,12.79-10.69.71-19.64,1.81-26.25,3.44-13.22,3.25-17.18,8.94-7.21,18.57,3.31,5.23,17.76,7.24,38.54,7.78,41.57,1.09,35.2.73-24.96-.17-12.03-.18-23.98-.24-35.79-.2-14.74-.59-36.64-1.31-54.17.9-8.76,1.1-16.44,2.93-21.58,5.85-14.84,9.38,1.42,22.8,18.88,23.33,12.43,1.38,27.14,1.24,38.9,1.66,10.9.36,21.98.41,33.17.31,55.98-.53,44.3-.96-18.14-1.38-10.41-.07-20.72.02-30.89.33-7.39-.25-14.82-.11-22.22.31-20.76.97-44.25,4.96-64.38,8.38,13.61,6.93,27.21,13.87,45.69,15.28,7.61,1.09,15.79,1.91,24.41,2.56,60.22,4.35,64.75,4.1,1.14.88ZM71.65,534.36c-5.21,5.17-12.77,11.92-17.77,16.39,7.38,2.1,16.17,1.1,23.14-2.14,9.43-4.23,14.37-9.69,11.72-16.17,1.77,4.32,3.54,8.64-5.64,12.51,44.51-5.24,105.82,30.57,136.36-.04-41.33-4.54-77.73-14.54-120.85-12.74-8.88.56-17.87,1.3-26.95,2.19Zm970.35-33.36c-10.38-2.11-20.93-3.86-31.58-5.22-74.5-9.49-153.39.11-207.93,35.66,45.59-9.18,92.21-15.83,139.08-16.23,9.37-.08,18.76.09,28.15.54,18.58,4.95,37.83-.63,56.48,6.72,5.34-7.64,10.49-14.66,15.79-21.47Zm-54.28,78.29c-25.34-7.97-51.49-10.47-79.43-10.47-8.96-.21-17.85-.11-26.75.22-17.8.66-35.65,2.21-53.44,4.55-10.63,1.49-21.22,3.36-31.76,5.61-9.89,2.52-19.47,5.61-28.63,9.36-9.16,3.75-17.9,8.16-26.11,13.31,28.42.38,57-2.53,85.51-5.31,9.5-.93,19-1.84,28.49-2.64,9.52-1.58,18.98-2.58,28.39-3.05,29.12.38,58.62,2.3,84.98,11.01,6.76-7.53,12.84-14.89,18.75-22.58Zm18.66-27c-26.01-7.13-52.15-9.63-80.08-9.6-9.08-.14-18.17-.01-27.24.42-36.27,1.74-72.06,8.34-104.09,21.77-8.39,3.72-16.27,8.16-23.53,13.44,8.72-.61,17.5-1.35,26.34-2.13,8.84-.78,17.74-1.62,26.7-2.49,17.88-2.18,35.96-4.17,54.18-5.43,9.11-.63,18.26-1.08,27.49-1.22,28.3-2.54,56.21,4.28,83.71,9.34,5.64-7.93,10.97-15.76,16.51-24.1Zm-873.42,35.4c-16.29-4.53-36.42-1.11-51.92-4.78-8.77.39-17.26,1.74-24.94,4.54-7.68,2.8-14.56,7.04-20.14,13.35,7.33-.12,14.74-.86,22.19-1.77,10.45-1.27,22.61-2.51,34.35-2.49,11.72.07,22.98,1.46,31.72,5.28,2.82-4.61,5.69-9.25,8.74-14.13Zm269.08-45.58c11.34-2.2,22.65-4.8,33.2-8.36,10.55-3.57,20.35-8.12,28.65-14.15-8.05.07-15.91.59-23.65,1.4-7.75.81-15.38,1.92-22.97,3.15-36.38,11.85-89.55,4.7-107.55,30.87,32.85,1.36,62.87-12.98,92.27-20.15,3.36.73,3.44,3.1.06,7.24Zm-65.15,62.1c19.12-6.21,41.73-12.36,62.65-12.44,9.7-.79,20.07-1.47,30.52-2.43,31.36-2.89,63.45-8.34,80.13-26.77-37.8,4.11-68.7,16.28-102.96,29.03,1.59-4.89,6.53-10.35,8.11-15.24-31.97.81-65.53,6.5-78.9,26.92.17.36.34.7.44.92Zm824.53,24.5c30.25,3.06,63.11,4.42,93.97,6.34,10.21.27,20.3.29,30.38.08,48.98-4.53,117.16-4.55,143.46-36.75-28.43,9.45-63.94,1.61-90.6,15.38-18.36,7.74-38.68,1.94-60.87,2.41-10.13-.69-20.32-1.76-30.79-3.01-20.32-1.19-40.64-6.98-64.49-5.95-7.24,7.68-14.07,14.66-21.05,21.5Zm-331.07-77.84c20.45-6.9,43.77-8.27,67.54-8.26,11.88,0,23.88.35,35.74.6,30.66-2.25,72.87,4.45,92.64-17.39-21.9-.9-36.39-10-59.14-9.58-10.28-1-20.62-1.57-30.83-1.49-30.61.23-59.96,6.25-82.34,23.69-5.66,4.57-13.91,9.16-23.62,12.44Zm-484.44,36.16c-41.12,17.36-102.77,7.02-127.48,34.33,39.57.22,79.83-6.62,114.82-16.37,4.19-5.97,8.32-11.82,12.66-17.96Zm850.53-39.6c7.72,1.16,15.2,1.72,22.06.89,6.86-.83,13.12-3.05,18.51-7.43,4.94-5.46,3.17-9.78-5.31-12.97-8.88-1.96-17.8-3.48-26.74-4.77-8.94-1.29-17.89-2.36-26.84-3.42-33.34-2.48-67.26-15.21-100.81-9.51-12.54,4.44-12.36,13.65-6.35,19.57,29.16,27.4,89.2-1.28,129.29,11.5-.69,1.9-2.39,3.93-3.81,6.15Zm-222.95,53.41c29.18,7.56,55.5,19.27,85.7,14.15,14.31-.12,30.9-12.18,14.83-16.38-22.97-12.28-54.94-11.47-83.49-18.55-5.61,7.3-11.29,14.23-17.05,20.78Zm52.87-27.84q-3.41-2.7-7.65-4.3c7.6,1.02,17.66-.69,24.37-1.83-10.25-7.5-30.57-13.3-41.33-4.54-8.3,6.03-4.76,14.67.37,18.43,36.58,19.21,104.76,19.19,129.47-8.11-32.85-1.36-63.24-5.44-95.16-12.79-3.34,4.36-6.46,8.44-10.07,13.14Zm638.04-32.47c12.77-2.72,20.19-10.92,27.6-19.11-48.58-9.09-101.09-14.62-151.12-11.9-12.51.68-24.86,1.87-36.96,3.65-35.01,6.83-74.4,15.83-99.29,33.92,49.63-1.49,93.26-8.9,140.04-16.74,9.08-1.57,18.09-3.17,27.04-4.69,2.65,6.48-13.23,11.48-9.88,10.91,11.83,2.62,24.68,3.33,37.74,3.38,13.05.05,26.31-.55,38.97-.56,8.55.36,17.16.74,25.86,1.13Zm-1472.77,44.84c-13.49-1.08-29.75-14.49-38.93-10.62-36.03,8.43,13.09,23.2,27.99,26.24,3.48-5.06,7.07-10.18,10.94-15.61Zm14.03-19.42c-15.34-4.52-36.54-12.48-47.31-3.72-16.6,12.06,15.56,20.47,34.77,21.06,4.1-5.7,8.22-11.39,12.54-17.34Zm-109.59-.41c5.23,6.38-7.31,10.82-6.42,12.98,12.72,4.77,10.77-8.76,17.48-9.9-2.47,2.73-10.77,8.76-6.53,10.35,6.89,8.07,42.22,6.7,42.74-9.57-9.18,3.87-13.61-6.93-21.84-3.08-7.93-.81-16.45-1.05-25.43-.78Zm1.1-1.88c17.37-3.24,60.66,14.84,46.69-10.53-1.77-4.32-18.73-10.69-27.03-4.66.88,2.16,2.65,6.48.18,9.21-3.36.57-7.6-1.02-10.95-.45,2.47-2.73,4.06-7.62,6.53-10.35-3.36.57-2.47,2.73-5.43,2.91-5.11,4.62-6.93,9.21-9.99,13.86Zm405.23,17.3c37.66,1.98,72.28,7.66,110.26,12.76-22.97-12.28-42.58-25.13-73.85-31.37-16.08-4.2-37.8,4.11-36.78,17.23.09.33.18.69.37,1.38Zm913.19,42.22c59.59-.24,133.96,14.87,182.16-16.42-54.57,6.95-129.31-26.58-169.81,4.46-4.11,3.91-8.19,7.88-12.35,11.96Zm209.49-47.59c-52.25,5.36-131.05-20.56-157.34,11.64-9.88,10.92,28.1,16.03,46.64,17.5,32.85,1.36,75.78,1,96.52-16.06,4.69-4.3,9.39-8.65,14.18-13.08Zm-475.43-30.92c-37.85,5.92-102.52-29.33-102.68,5.37-.34,25.48,53.35,16.36,83.26,19.13,6.56-8.38,12.95-16.43,19.42-24.5Zm-802.38,40.39c4.15-7.07,9.09-12.53,13.15-20.16-33.56,5.7-77.18,13.1-92.71,36.54,11.65-6.6,25.96-6.72,40.05-8.02,13.07-2.68,26.26-5.48,39.51-8.36Zm-121.89,22.19c-20.73-2.03-48.64-8.85-60.11,6.96,16.08,4.2,29.68,11.14,49.33,8.23,3.33-4.85,6.86-9.83,10.77-15.2Zm-99.6-5c10.7,2.98,42.85,11.39,37.54-1.58-.18-9.21-18.73-10.69-28.82-12.53-3.05,4.88-5.91,9.5-8.72,14.1Zm294.06-30.5c2.04-5.73,6.99-11.19,11.93-16.65-9.27-.74-17.05.01-24.69,1.44-27.41,2.78-48.25,13.25-59.72,29.06,14.31-.12,21.72-8.31,37.31-7.88,11.87-2.06,23.57-4.03,35.17-5.97Zm-125.9,5.81c18.62-6.85,37.16-5.37,57.3-8.79,12.54-4.44,14.83-16.38,3.87-16.84-15.19-2.04-31.09,2.97-46.74,6.18-4.82,6.53-9.57,12.92-14.44,19.45Zm-53.62,9.81c-17.48.89-37.8-4.91-45.21,3.28-19.07,14.79,13.79,16.15,31.8,14.53,4.3-5.76,8.7-11.61,13.41-17.81Zm-45.34-3.75c10.62,2.07,27.18,2.54,39.27.18,12.08-2.36,19.64-7.45,12.1-16.15-7.02-7.81-24.25,1.56-38.68-1.5-4.38,6.01-8.54,11.74-12.68,17.46Zm14.33-19.72c23.23,4.22,64.38-.45,63.13-21.04-16.78,2.85-31.97.81-49.79,2.62-4.5,6.24-8.88,12.29-13.34,18.43Zm531.05,39.63c6.2-7.12,14.5-13.15,21.91-21.34-24.5,5.89-60.14-.62-82.24,7.46-7.36,2.69-13.23,7.01-16.68,13.94,10.97.46,25.28.35,34.89,1.47,13.03-.06,27.04-.62,42.12-1.53Zm817.55-62.06c-24.31,13.78-65.65,9.24-82.06,30.51,43.62-7.41,91.85,5.21,135.88-3.81,10.45-1.9,20.11-4.7,28.52-8.79,8.41-4.09,15.57-9.48,21.05-16.57-12.63-.17-26.1-.19-39.48-.34-13.38-.15-26.67-.42-38.95-1.08-8.4-.05-16.73-.01-24.96.08Zm-784.16-7.12c1.73-7.56,7.56-10.86,16.78-14.73-4.98,5.47-9.92,10.93-14.87,16.39,14.31-.12,31.18-12.29,25.09-18.16-5.2-3.72-23.68,4.06-35.42,1.49-13.15.56-26.19,1.18-37.97,2.29-11.37.89-21.94,2.47-30.93,5.61-8.88,3.04-16.13,7.57-20.93,14.56,11.85,2.1,24.04-2.14,36.55-5.98,12.66-3.89,25.72-7.23,39.83-3.26,0,0-5.37,3.3-2.48,6.71,7.78-1.25,13.69.02,24.36-4.92Zm-404.43,22.68c-3.96,2.41-2.19,6.73-4.66,9.46,15.01-7.17,29.32-7.29,46.29-9.55,7.35-1.87,13.98-4.29,19.28-7.79,5.3-3.5,9.26-8.07,11.24-14.19-11.3,3.07-21.32,7.09-31.47,11.01-10.15,3.92-20.44,7.78-32.25,10.46-4.22.74-6.41,1.08-8.43.6Zm-48.82-19.3c-23.68,3.3-59.01,4.67-57.76,25.26,13.42-2.28,32.85,1.36,44.43-6.84,4.66-6.36,9.03-12.4,13.32-18.42Zm-75.75,47.05c25.07-4.5,59.51-8.04,59.14-26.46-12.54,4.44-31.97.81-44.18,6.77-5.1,6.73-10.01,13.19-14.96,19.69Zm279.18-42.51c-2.44-4.72,2.5-10.18,8.33-13.48-19.43-3.63-50.52-.67-47.68,15.03-1.59,4.89,10.07-1.71,17.77-.68,7.23-.46,14.41-.74,21.59-.87Zm-1.18,1.89c-15.39,2.73-43.3-4.09-48.06,10.59-1.4,14.1,26.14,2.5,37.14,5.85,3.78-5.66,7.34-11.04,10.92-16.43Zm30.8-.67c13.51.2,27.11,7.13,43.01,2.12,10.07-1.71,8.3-6.03,3.17-9.78-11.84-2.61-23.67-5.23-35.93-7.42-3.41,4.99-6.76,9.93-10.25,15.08Zm11.54-16.92c13.44,1.3,35.52,11.42,45.41.5,11.47-15.81-18.73-10.69-35.46-14.96-3.41,4.95-6.64,9.64-9.94,14.46Zm33.28,23.01c14.26.23,43.94,11.37,45.35-2.73,4.76-14.67-18.73-10.69-34.35-12.84-3.66,5.17-7.25,10.26-10.99,15.57Zm28.3,26.26c4.88-6.12,13.17-12.15,8.05-15.9-12.02-11.83-47.34-10.45-49.14,8.03,13.54,2.56,27.1,5.21,41.09,7.88Zm63.11-11.49c-16.19,2.85-40.05-11.59-52.4,2.06-13.94,18.54,25.44,9.55,37.99,16.09,4.76-6.06,9.48-12,14.41-18.16Zm17.22-21.08c-18.77-1.66-53.39-7.34-55.68,4.6-3.87,16.84,26.33,11.71,40.32,14.18,5.06-6.22,10.04-12.29,15.36-18.78Zm521.66,10.77c-.45,9.14-16.34,14.15-14.57,18.47,5.31,12.97,36.39,10,53.11,9.18,9.59-1.77,18.39-4.93,24.97-9.4,6.58-4.48,10.94-10.27,11.64-17.32-14.31.12-26.14-2.5-38.48.82-12.34-.31-24.53-.91-36.66-1.75Zm80.9,1.32c-4.91,3.62-6.04,8.67-7.92,13.44-1.89,4.77-4.53,9.27-12.48,11.77,9.89.05,20.67.05,31.48-.5,33.34,1.05,64.24-11.13,74.83-29.1-15.19-2.04-31.97.81-44,2.17-14.38.83-28.3,1.6-41.91,2.23Zm185.95-11.95c-37.87,1.62-97.75-4.39-118.22,24.51,34.62,5.68,82.67,9.08,103.83-11.12,4.75-4.37,9.53-8.82,14.39-13.39Zm-32.06,29.45c-37.23.62-105.59-8.57-105.74,26.12,30.2-5.13,74.19,5.89,92.29-14.06,4.39-3.93,8.86-7.94,13.46-12.06Zm-257.09,7.99c-7.98,5.89-11.16,15.67-23.69,20.11,17.85,8.53,38.86,7.27,58.89,7.09,9.75-.95,18.59-3.26,25.37-7.12,6.78-3.87,11.52-9.29,13.06-16.49-10.95-.45-25.26-.33-35.45-.79-12.52-.62-25.3-1.64-38.17-2.8Zm-5.86-.46c-28.45-5.36-95.04-10.23-73.47,16.15,3.54,8.64,32.15,8.41,52.22,7.51,7.21-7.87,14.2-15.64,21.26-23.66Zm223.58-60.34c-14.85,3.16-29.16,3.28-44.28,3.97-7.73.69-15.42,1.56-22.75,2.82-21.96,3.76-40.55,10.96-46.54,27,7.95-2.5,17.19-3.5,26.85-3.96,29.5,1.33,57.23-1.07,74.45-16.14,4.02-4.45,8.1-9,12.27-13.69Zm-1342.7,46.49c-5.49,3.39-10.6,7.82-15.64,10.27,2.54-2.21,5.12-6.39,2.65-8.1-2.42-3.67-9.91-.94-12.38-.69-7.43,4.64-2.72,13.87,4.64,15.13,7.44,2.35,15.31.5,20.87-3.16,5.55-3.64,8.77-9.08,6.97-14.03-2.61.2-4.95.39-7.11.58Zm341.83,4.58c20.58-4.19,52.55-5,43-19.55-4.42-10.8-19.25,5.58-31.33,2.45-3.81,5.66-7.63,11.26-11.67,17.1Zm23.66-35.21c-1.86,7.7-11.04,11.57-11.74,18.62,20.13-3.42,60.4-10.25,39.9-25.26-.88-2.16-13.42,2.28-21.72,5.49-3.35,1.82-3.44-.47-6.45,1.15Zm-393.03,16.51c-4.96,4.72-7.47,8.86-5.11,12.48,7.28,5.1,14.11,4.38,19.65.85,5.55-3.52,9.81-9.84,11.96-15.94-8.83.86-17.44,1.73-26.5,2.6Zm540.2-1.4c-22.63,8.42-22.63-12.16-35.11-6.67-14.27,5.57-12.17,9.32-4.6,12.69,7.56,3.37,20.57,6.44,28.21,10.45,4-5.73,7.72-11.05,11.51-16.47Zm145.63,12.02c-11.23-1.62-26.3-1.41-38.51,1.52-12.21,2.92-21.57,8.56-21.39,17.77,10.95.45,24.02,1.7,35.68.59,11.66-1.11,21.9-4.58,27.19-13.57-4.94,5.46-5.83,3.3-9.28.39,1.83-1.94,3.99-4.24,6.3-6.7Zm-62.4-41.13c-19.79-2.82-48.4-2.59-60.76,11.07,16.08,4.2,31.27,6.25,47.49-5.35,4.07-2,8.22-4.21,13.26-5.72Zm-142.04,3.36c8.68-3.08,13.62-8.55,7.61-14.46-21.2-7.96-40.27,6.84-53.51,18.33,6.71-1.14,16.78-2.85,24.31-3.21,7.22-.37,14.39-.58,21.58-.66Zm810.85,76.82c4.72-11.2,21.5-14.05,23.79-25.99-19.07,14.79-41.33-4.54-62.88,2-8.61.89-16.1,2.88-20.82,6.14-4.72,3.26-6.68,7.78-4.25,13.72.88,2.16,18.55,1.46,29.34,2.87,11.35.69,22.89,1.09,34.82,1.25Zm-122.97-48.42c-29.72-5.38-59.92-.26-83.22,12.94,24.37-1.83,56.71,15.8,73.48-1.11,3.31-3.91,6.54-7.83,9.74-11.84Zm-600.76,32.91c4.85,5.4,12.09,6.69,19.11,7.92,7.01,1.23,13.77,2.39,17.66,7.51,4.94-5.46,9.88-10.92,14.83-16.38-12.72-4.77-32.85-1.36-45.93-6.83-1.78,2.44-3.56,4.9-5.66,7.78Zm608.41-35.46c23.39,5.34,51.12,2.94,74.61-1.05,12.54-4.44,13.06-20.71-2.13-22.75-21.9-.9-36.73,15.48-63.8,12.88-2.89,3.58-5.73,7.16-8.67,10.92Zm-145.04,69.1c32.47-1.39,67.09,4.28,92.87-11.65-23.67-5.23-48.93-5.56-72.73-9.24-6.69,7.06-13.02,13.61-20.14,20.89Zm-835.05-16.97c-.82-10.35,15.96-13.2,23.37-21.39-21.02,1.26-35.14,10.59-44.62,23.24,6.71-.4,13.59-1,21.25-1.85Zm509.58-62.92c-21.33,11.14-49.95,11.38-66.54,23.44,23.49-3.99,62.35,3.28,71.17-19.02-3.36.57-6.71,1.14-9.73,1.37,1.85-2.08,3.4-3.85,5.1-5.79Zm251,9.87c8.8,6.62,20.46,5.5,29.44.86,8.98-4.64,15.23-12.68,13.57-20.26-1.11-5.05-18.27,2.07-26.69-4.71-5.49,8-10.84,15.93-16.32,24.12Zm45.48-21.18c-4.49-9.94,22.36-14.5,12.11-22-12.9-13.99-33.56,5.7-39.22,16.26,8.92,1.85,17.81,3.76,27.12,5.74Zm614.82,11.71c22.59,3.43,44.49,4.33,63.17-3.09,9.22-2.89,16.57-6.54,20.3-10.4,3.73-3.86,3.84-7.92-1.42-11.67.08-2.04-7.88-2.53-18.11-2.58-24.43-6.37-39.44.8-47.8,13.84-5.36,4.59-10.72,9.2-16.15,13.9Zm-1121.12,2.57c-20.4-9.91,33.66-9.96-4.18-15.63-12.3-1.84-16.17,8.16-19.13,14.6,7.87.17,15.54.51,23.31,1.03Zm1174.82,2.88c-29.53-6.92-55.49-.2-76.32,10.27,3.36-.57,4.24,1.59,7.6,1.02-1.59,4.89-17.48,9.9-8.11,15.24,20.32,5.8,52.29,4.99,60.22-12.38,5.47-4.68,10.99-9.37,16.62-14.16Zm-1199.31-2.03c12.48,6.07-31.79,11.73,4.39,16.58,4.05-.19,20.37-8.49,18.9-15.56-7.7-.52-15.36-.86-23.3-1.02Zm23.36-33.21c-5.11,7.85-9.85,22.83,5.96,17.83,6.67-1.07,13.16-11.47,16.6-16.85-7.61-.45-15.08-.78-22.56-.98Zm-459.69,53.2c4.21-6.97,9.82-11.73,15.34-16.41-8.09,4.91-17.5-6.53-26.63,9.14,2.65-.35,5.28-.69,7.91-1,2.39,1.84-.72,6.43-2.98,8.78,2.1-.18,4.09-.33,6.36-.5Zm373.08-32.71c15.69-2.74,29.11-5.02,34.75-17.53-7.6-1.02-13.42,2.28-19.93,7.45-4.41,4.03-9,7.27-14.82,10.09Zm-402.69,1.92c11.6-2.3,14.31-12.48,19.52-21.07-5.1,2.66-7.65,4.98-11.27,8.3-3.49,3.76-6.22,7.93-8.25,12.77Zm-30.76,61.04c-3.61-1.28-3.27-5.31-3.1-7.32-10.03,1.34-5.35,4.67-5.65,8.66,2.17,3.69,6.97,5.13,12.15,2.53,2.71-2.34,5.66-6.76,3.51-10.54-2.36-1.7-7.29-3.02-5.14,3.67-.5.85-.99,1.68-1.76,3Zm717.64-25.78c-6.71,3.46-17.48,12.22-13.24,13.81,20.5,15.01,37.61-13.32,55.09-23.22-16.78,2.85-32.67,7.86-38.32,20.37,4.94-5.46,7.41-8.19,10.94-14.45-4.35-.08-9.04,1.26-14.48,3.49Zm-121.5,9.14c-12.25-2.26-24.6-3.12-36.71-6.63,12.11,3.51,24.32,9.74,30.91,14.63,1.87-2.58,3.73-5.14,5.8-8Zm166.12-22.01c3.12-4.81,8.44-9.01,14.94-12.93,6.51-3.93,14.28-7.66,22.17-11.46-11.79-1.3-20.63,2.03-27.67,7.14-7.02,5.1-12.33,12.07-17.21,18.09,2.48-.26,4.62-.49,7.76-.84Zm-632.12,56.55c7.09,1.09,12.67-3.01,18.39-9.34-5.43-.11-11.03,4.06-17.63,7.02-.23.69-.48,1.45-.76,2.32Zm-37.8-8.89c-2.54,5.77-15.4,2.55-16.23,10.97,7.99-.65,11.04-5.03,15.6-7.01,1.29-1.65.68-2.46.63-3.96Zm164.17-21.91c-13.28,5.28-24.93,11.88-32.34,20.07,12.54-4.44,20.84-10.47,31.53-15.57,2.49-2.67,1.17-3.09.81-4.51Zm567.26-53.51c-15.88,9.15-48.74,7.79-48.37,26.22,19.25-5.58,34.26-12.75,50.16-21.29,2.91-3.05.08-3.43-1.79-4.93Zm962.75-51.73c39.54-9.27,85.82-8.62,86.72-29.96-23.58,6.18-58.26,13.19-78.27,22.79-2.96,2.52-5.44,4.62-8.44,7.17Zm-1358.04,91.55c-14.81-3.04-34.06,2.54-40.59,12.89,5.83-3.3,12.54-4.44,20.26-6.66,6.83-2.11,13.59-4.19,20.33-6.23Zm-423.51,2.71c-4.49,4.07-9.95,8.87-12.95,15.24,12.33,2.31,6.2-14.79,19.3-15.6-2.66.16-4.58.27-6.34.36Zm-3.52,14.59c3.17.53,7.82,7.79,10.56-9.79-2.45,2.17-4.89,4.33-8.21,5.79-.77,1.31-1.52,2.58-2.35,3.99Zm14.08-16.96c1.37-4.23,1.71-8.31,4.67-12.83-2.97,4.52-8.59,9.47-13.29,13.38,2.94-.17,5.7-.35,8.62-.56Zm1.9,17.97c-10.32-.44-8.58,7.44-12.07,11.51,5.13-2.23,8.76-6.35,12.07-11.51Zm-5.8-1.29c3.22-.22,5.82-.57,5.82-.57.23-2.09,3.3-6.64-2.08-7.94-1.25,2.83-2.45,5.57-3.74,8.51Zm731.65-31.2c7.44-5.36,6.7-7.98,11.78-13.89-18.86,4.56-17.12,12.56-26.69,17.86,5.44-1.45,9.95-2.65,14.91-3.97Zm-716.13-10.04c3.53-3.08,6.1-5.65,8.59-8.64-2.05.27-3.84.32-5.85.71-.87,2.58-1.64,4.82-2.73,7.94Zm22.24,21.46c1.96-2.98,3.53-5.57,1.63-6.23-3.13,1.49-4.59,3.95-6,6.65,1.42-.14,2.79-.27,4.37-.42Zm-8.86,7.82c2.44-2.23,4.56-3.26,6.55-5.71-1.17.12-2.18.21-3.28.32-.91,1.51-1.83,3.02-3.27,5.39Z"/></svg>