<?xml version="1.0" encoding="utf-8"?>
<!-- Generator: Adobe Illustrator 27.9.4, SVG Export Plug-In . SVG Version: 9.03 Build 54784)  -->
<svg version="1.1" id="Layer_1" xmlns="http://www.w3.org/2000/svg" xmlns:xlink="http://www.w3.org/1999/xlink" x="0px" y="0px"
	 viewBox="0 0 360 360" style="enable-background:new 0 0 360 360;" xml:space="preserve">
<g>
	<path d="M175.87,117.61c22.2,0,40.26,18.06,40.26,40.26s-18.06,40.26-40.26,40.26s-40.26-18.06-40.26-40.26
		S153.67,117.61,175.87,117.61 M175.87,105.91c-28.7,0-51.96,23.26-51.96,51.96s23.26,51.96,51.96,51.96s51.96-23.26,51.96-51.96
		S204.57,105.91,175.87,105.91L175.87,105.91z"/>
</g>
<g>
	<path d="M276.55,270.96c-43.12-34.23-101.38-45.82-153.41-26.65c-17.3,6.16-33.23,15.41-47.94,26.65
		C123.83,207.73,227.9,207.79,276.55,270.96L276.55,270.96z"/>
</g>
</svg>
