<?xml version="1.0" encoding="utf-8"?>
<!-- Generator: Adobe Illustrator 27.9.4, SVG Export Plug-In . SVG Version: 9.03 Build 54784)  -->
<svg version="1.1" id="Layer_1" xmlns="http://www.w3.org/2000/svg" xmlns:xlink="http://www.w3.org/1999/xlink" x="0px" y="0px"
	 viewBox="0 0 360 360" style="enable-background:new 0 0 360 360;" xml:space="preserve">
<g>
	<path d="M336.22,185.97c-0.13,86.23-70.13,156.13-156.29,156.06C93.57,341.96,23.51,271.7,23.79,185.46
		C24.06,99.18,94.08,29.43,180.26,29.6C266.49,29.77,336.35,99.81,336.22,185.97z M172.87,126.9c-18.84,0-37.25,0-55.9,0
		c-3.88,17.03-5.92,34.15-6.2,51.73c20.81,0,41.36,0,62.1,0C172.87,161.34,172.87,144.3,172.87,126.9z M110.97,192.94
		c-0.09,0.78-0.22,1.37-0.2,1.95c0.42,15.9,2.33,31.62,5.52,47.2c0.46,2.25,1.51,2.85,3.71,2.84c16.48-0.08,32.97-0.04,49.45-0.06
		c1.06,0,2.13-0.14,3.33-0.23c0-17.35,0-34.47,0-51.7C152.03,192.94,131.57,192.94,110.97,192.94z M187.25,126.87
		c0,17.51,0,34.63,0,51.79c20.78,0,41.25,0,62.02,0c-0.43-17.66-2.28-34.87-6.31-51.79C224.17,126.87,205.88,126.87,187.25,126.87z
		 M187.25,192.96c0,17.42,0,34.54,0,51.75c18.73,0,37.13,0,55.76,0c3.89-17.04,5.92-34.15,6.21-51.75
		C228.49,192.96,208.03,192.96,187.25,192.96z M102.29,244.7c-0.06-1.01-0.06-1.72-0.14-2.43c-1.73-15.25-3.58-30.49-5.1-45.76
		c-0.3-2.97-1.06-3.87-4.06-3.84c-17.09,0.14-34.18,0.07-51.27,0.07c-1.19,0-2.38,0-3.62,0c-0.08,0.92-0.19,1.4-0.15,1.88
		c1.1,16.32,4.74,32.03,11.09,47.13c0.99,2.37,2.24,3.23,4.85,3.21c14.89-0.13,29.79-0.06,44.68-0.07
		C99.74,244.87,100.92,244.77,102.29,244.7z M37.9,178.63c1,0.11,1.6,0.24,2.19,0.24c17.94,0.01,35.89-0.04,53.83,0.07
		c2.62,0.02,2.87-1.21,3.04-3.32c0.95-11.54,1.94-23.08,3.13-34.6c0.48-4.67,1.51-9.28,2.34-14.27c-17.07,0-33.65-0.02-50.24,0.07
		c-0.83,0-2.09,0.85-2.43,1.62C42.74,144.32,38.81,160.93,37.9,178.63z M321.92,178.66c0.05-0.76,0.15-1.35,0.11-1.94
		c-1.13-16.07-4.71-31.54-10.89-46.44c-1.08-2.59-2.34-3.67-5.32-3.63c-14.77,0.19-29.54,0.08-44.31,0.08c-1.19,0-2.37,0-3.68,0
		c0,1.13-0.07,1.84,0.01,2.54c1.73,15.37,3.55,30.74,5.13,46.13c0.27,2.59,0.82,3.56,3.6,3.54c17.46-0.12,34.91-0.06,52.37-0.07
		C319.9,178.88,320.85,178.74,321.92,178.66z M257.68,244.46c0.61,0.2,0.84,0.34,1.07,0.34c16.23,0.03,32.47,0.1,48.7-0.03
		c1.04-0.01,2.67-1.29,3.01-2.31c3.07-9.1,6.36-18.17,8.69-27.48c1.78-7.1,2.25-14.53,3.29-21.65c-1.02-0.37-1.25-0.52-1.48-0.52
		c-18.43-0.04-36.86-0.02-55.29-0.13c-2.64-0.01-2.49,1.57-2.63,3.33c-0.73,9.48-1.33,18.98-2.33,28.44
		C260.01,231.1,258.73,237.67,257.68,244.46z M172.87,44.28c-8.97,2.17-15.91,6.79-22,12.77c-11.91,11.7-19.48,26.1-25.33,41.5
		c-1.74,4.57-3.21,9.25-4.86,14.03c17.87,0,35,0,52.19,0C172.87,89.73,172.87,67.21,172.87,44.28z M187.25,44.33
		c0,23.07,0,45.69,0,68.24c17.44,0,34.55,0,52.11,0c-1.79-5.13-3.29-9.88-5.08-14.53c-5.78-15.03-13.2-29.1-24.75-40.61
		C203.32,51.26,196.27,46.42,187.25,44.33z M172.75,327.28c0-23.05,0-45.67,0-68.24c-17.43,0-34.55,0-52.11,0
		c1.79,5.12,3.29,9.87,5.09,14.5c5.82,15.01,13.23,29.08,24.77,40.59C156.69,320.31,163.73,325.17,172.75,327.28z M187.11,327.34
		c10.57-2.59,18.4-8.6,25.19-16.12c10.12-11.21,16.93-24.37,22.23-38.37c1.7-4.49,3.16-9.07,4.81-13.85c-17.79,0-34.92,0-52.23,0
		C187.11,281.8,187.11,304.32,187.11,327.34z M222.61,321.26c34.08-10.88,60.42-31.46,79.32-61.9c-0.69-0.31-1.01-0.58-1.32-0.58
		c-14.9-0.03-29.8-0.08-44.69,0.05c-0.89,0.01-2.3,1.27-2.58,2.22C246.74,282.96,237.73,303.62,222.61,321.26z M137.54,320.94
		c-1.46-1.78-2.96-3.52-4.38-5.33c-12.52-15.99-20.43-34.24-26.03-53.59c-0.76-2.63-1.9-3.38-4.54-3.36
		c-13.66,0.13-27.33,0.05-41,0.07c-1.05,0-2.1,0.15-3.75,0.27C76.95,289.77,103.25,310.35,137.54,320.94z M137.32,50.42
		c-34.08,10.87-60.37,31.45-79.27,61.88c0.75,0.3,1.07,0.55,1.39,0.55c14.89,0.03,29.77,0.08,44.66-0.07
		c0.92-0.01,2.25-1.5,2.67-2.58c3.39-8.86,6.29-17.93,9.96-26.67C121.81,71.45,128.83,60.48,137.32,50.42z M222.39,49.93
		c0.28,0.8,0.3,1.08,0.45,1.25c15.01,17.02,23.87,37.22,30.12,58.71c0.75,2.58,1.99,3.08,4.38,3.06c13.67-0.09,27.33-0.04,41-0.06
		c1.05,0,2.11-0.14,3.86-0.26C282.96,81.88,256.72,61.16,222.39,49.93z"/>
</g>
</svg>
